# xmcd CD database file
#
# Track frame offsets:
#	150
#	27861
#	88781
#	131411
#	182551
#	262359
#
# Disc length: 3820 seconds
#
# Revision: 0
# Processed by: cddbd v1.5.1PL2 Copyright (c) Steve Scherf et al.
# Submitted via: CDex 1.51
#
DISCID=4e0eea06
DTITLE=Jeff Parker - Scott Fields - Song Songs Song
DYEAR=2004
DGENRE=Jazz
TTITLE0=LK 92
TTITLE1=Untitled, 1968, Bing Cherry Juice, KY Jerry, Ketchup on Vellum
TTITLE2=Untitled, 2004, Dried Blood on Gauze, Elastic Strip with Adhesive Backing
TTITLE3=Untitled, 2001, Soot on Slate
TTITLE4=Untitled, 1995, Crayon on Kellogg's Corn Flake Box
TTITLE5=The Fields of Cologne
EXTD=YEAR: 2004
EXTT0=
EXTT1=
EXTT2=
EXTT3=
EXTT4=
EXTT5=
PLAYORDER=
